# xmcd
#
# Track frame offsets: 
#        150
#        20025
#        37242
#        53247
#        66600
#        80432
#        92452
#
# Disc length: 2001 seconds
#
# Revision: 1
# Processed by: cddbd v1.5.2PL0 Copyright (c) Steve Scherf et al.
# Submitted via: ExactAudioCopy v0.95b4
#
DISCID=5e07cf07
DTITLE=O.V. Wright - Into Something
DYEAR=1977
DGENRE=
TTITLE0=Into Something(Can't Shake Loose)
TTITLE1=I Feel Love Growin'
TTITLE2=Precious Precious
TTITLE3=The Time We Have
TTITLE4=You Gotta Have Love
TTITLE5=Trying To Live My Life
TTITLE6=Medley:  God Blessed Our Love, When A Man Loves A Woman, That'
TTITLE6=s How Strong My Love Is
EXTD=
EXTT0=
EXTT1=
EXTT2=
EXTT3=
EXTT4=
EXTT5=
EXTT6=
PLAYORDER=
